<?xml version="1.0" encoding="utf-8"?>
<!-- Generator: Adobe Illustrator 23.0.2, SVG Export Plug-In . SVG Version: 6.00 Build 0)  -->
<svg version="1.1" id="Layer_1" xmlns="http://www.w3.org/2000/svg" xmlns:xlink="http://www.w3.org/1999/xlink" x="0px" y="0px"
	 viewBox="0 0 300 300" style="enable-background:new 0 0 300 300;" xml:space="preserve">
<style type="text/css">
	.st0{fill:#D6D6D5;}
	.st1{fill:#FFFFFF;}
	.st2{fill:#F2F2F1;}
	.st3{fill:none;}
	.st4{fill:#0079BF;}
	.st5{fill:#549ED6;}
	.st6{fill:#328ECD;}
</style>
<g>
	<polygon class="st0" points="237.9,96 237.9,204 144.4,258 144.4,150 	"/>
	<polygon class="st1" points="144.4,150 144.4,258 50.9,204 50.9,96 	"/>
	<polygon class="st2" points="237.9,96 144.4,150 50.9,96 144.4,42 	"/>
	<g>
		<polygon class="st3" points="234.3,183.5 130.7,243.3 151.3,170.6 254.8,110.8 		"/>
		<path class="st4" d="M212.4,161.6l0.2,1c1.6,0.8,2.4,2.4,2.4,4.8v11.8c0,2.3-0.7,4.7-2.1,7.2c-1.4,2.5-3.1,4.3-5.2,5.4l-36.4,21
			v-50.4l34.5-19.9c2-1.2,3.7-1.3,5.2-0.5c1.4,0.8,2.1,2.4,2.1,4.7v10.7C213.2,158.7,212.9,160.1,212.4,161.6z M205.9,148.2
			l-27.2,15.7c-0.6,0.4-1.2,1-1.7,1.8c-0.5,0.8-0.7,1.6-0.7,2.3v10.7c0,0.7,0.2,1.3,0.7,1.5c0.5,0.3,1,0.2,1.7-0.2l27.2-15.7
			c0.6-0.4,1.2-1,1.6-1.8c0.4-0.8,0.7-1.6,0.7-2.3v-10.7c0-0.7-0.2-1.3-0.7-1.5C207.1,147.8,206.6,147.8,205.9,148.2z M210.2,182.1
			v-11.8c0-0.7-0.2-1.3-0.7-1.5c-0.5-0.3-1-0.2-1.7,0.2l-29.1,16.8c-0.6,0.4-1.2,1-1.7,1.8c-0.5,0.8-0.7,1.6-0.7,2.3v11.8
			c0,0.7,0.2,1.3,0.7,1.5c0.5,0.3,1,0.2,1.7-0.2l29.1-16.8c0.6-0.4,1.2-1,1.7-1.8C209.9,183.6,210.2,182.8,210.2,182.1z"/>
	</g>
	<g>
		<polygon class="st3" points="160.2,137.2 46.1,76.6 128.6,54.9 242.7,115.5 		"/>
		<path class="st5" d="M147.4,64l39.8,23l-4.9,2.8l-34.9-20.2L132.9,78L161,94.2l-5,2.9L128,80.8L108.6,92l-4.9-2.8L147.4,64z"/>
		<path class="st5" d="M159.9,125.4c-1,0.6-2.3,0.9-3.7,0.9s-2.7-0.3-3.7-0.9l-11-6.3l2.5-1.5l11,6.3c0.3,0.2,0.7,0.3,1.2,0.3
			c0.5,0,0.9-0.1,1.2-0.3l3.3-1.9l-11.7-6.8c-1-0.6-1.5-1.3-1.5-2.1c0-0.8,0.5-1.5,1.5-2.1l13.9-8l2.5,1.4l-13.9,8
			c-0.3,0.2-0.5,0.4-0.5,0.7c0,0.3,0.2,0.5,0.5,0.7l10.5,6.1c0.3,0.2,0.7,0.3,1.2,0.3c0.5,0,0.9-0.1,1.2-0.3l13.9-8l2.5,1.4
			L159.9,125.4z"/>
	</g>
	<g>
		<polygon class="st3" points="125.2,224.7 64.1,189.4 64.1,129.4 125.2,164.7 		"/>
		<path class="st6" d="M114.6,206.7l5.9,3.4v5.7l-42.1-24.3c-2-1.2-3.7-3-5.2-5.4c-1.4-2.4-2.1-4.8-2.1-7.2v-33.6
			c0-2.3,0.7-3.9,2.1-4.7c1.4-0.8,3.1-0.6,5.2,0.5l29.1,16.8c2,1.2,3.7,3,5.2,5.4c1.4,2.5,2.1,4.8,2.1,7.2v33.6
			C114.8,204.6,114.7,205.4,114.6,206.7z M78.4,185.9l29.1,16.8c0.6,0.4,1.2,0.4,1.7,0.2s0.7-0.8,0.7-1.5v-33.6
			c0-0.7-0.2-1.5-0.7-2.3s-1-1.4-1.7-1.8l-29.1-16.8c-0.6-0.4-1.2-0.4-1.7-0.2c-0.5,0.3-0.7,0.8-0.7,1.5v33.6c0,0.7,0.2,1.5,0.7,2.3
			C77.2,184.9,77.8,185.5,78.4,185.9z"/>
	</g>
</g>
<g>
</g>
<g>
</g>
<g>
</g>
<g>
</g>
<g>
</g>
<g>
</g>
<g>
</g>
<g>
</g>
<g>
</g>
<g>
</g>
<g>
</g>
<g>
</g>
<g>
</g>
<g>
</g>
<g>
</g>
</svg>
